<svg viewBox="0 0 4458 1108" xmlns="http://www.w3.org/2000/svg">
  <g filter="url(#filter0_d)">
    <path d="M50 1029.42V841.296H166.72V867.935H80.4844V931.376H152.164V958.015H80.4844V1029.42H50Z" />
    <path d="M332.68 1029.42V841.296H363.165V1029.42H332.68Z" />
    <path d="M543.752 1029.42V841.296H597.031L654.155 1002.51H658.275V841.296H688.759V1029.42H636.579L578.081 867.935H574.237V1029.42H543.752Z" />
    <path d="M869.344 1029.42V841.296H899.829V1029.42H869.344Z" />
    <path d="M1135.62 864.914C1112.36 864.914 1100.74 873.062 1100.74 889.357C1100.74 897.779 1103.49 903.821 1108.98 907.483C1114.47 910.961 1126.55 915.355 1145.23 920.665C1164.09 925.791 1177.36 932.017 1185.05 939.34C1192.74 946.481 1196.59 957.832 1196.59 973.395C1196.59 993.168 1190.91 1008 1179.56 1017.89C1168.39 1027.59 1153.1 1032.44 1133.69 1032.44C1118.13 1032.44 1100.92 1030.61 1082.06 1026.95L1072.18 1025.03L1075.2 1000.58C1099.91 1003.88 1118.77 1005.53 1131.77 1005.53C1154.48 1005.53 1165.83 995.457 1165.83 975.317C1165.83 967.444 1163.26 961.677 1158.14 958.015C1153.01 954.17 1141.48 950.051 1123.53 945.657C1105.59 941.079 1092.23 934.854 1083.44 926.982C1074.65 919.109 1070.25 906.659 1070.25 889.631C1070.25 872.604 1075.75 859.788 1086.73 851.182C1097.9 842.394 1113.28 838 1132.87 838C1146.97 838 1163.63 839.648 1182.85 842.943L1192.47 844.591L1189.99 869.308C1164.36 866.379 1146.24 864.914 1135.62 864.914Z" />
    <path d="M1478.63 1029.42V948.128H1397.34V1029.42H1366.85V841.296H1397.34V921.489H1478.63V841.296H1509.39V1029.42H1478.63Z" />
    <path d="M1950.59 1032.44C1923.13 1032.44 1904.45 1024.84 1894.56 1009.65C1884.86 994.45 1880.01 969.458 1880.01 934.671C1880.01 899.884 1884.95 875.167 1894.84 860.52C1904.72 845.69 1923.31 838.275 1950.59 838.275C1966.88 838.275 1984.83 840.563 2004.42 845.141L2003.32 869.858C1986.84 866.928 1970.36 865.463 1953.88 865.463C1937.41 865.463 1926.24 870.407 1920.38 880.294C1914.52 889.997 1911.59 908.398 1911.59 935.495C1911.59 962.409 1914.43 980.81 1920.1 990.697C1925.78 1000.4 1936.86 1005.25 1953.34 1005.25C1969.81 1005.25 1986.47 1003.88 2003.32 1001.13L2004.14 1026.4C1985.28 1030.43 1967.43 1032.44 1950.59 1032.44Z" />
    <path d="M2157.92 1029.42L2204.34 841.296H2265.03L2311.72 1029.42H2280.96L2270.8 989.049H2198.57L2188.41 1029.42H2157.92ZM2227.95 866.837L2204.61 962.135H2264.76L2241.69 866.837H2227.95Z" />
    <path d="M2506.33 962.409V1029.42H2475.85V841.296H2547.25C2589.73 841.296 2610.97 861.252 2610.97 901.166C2610.97 927.897 2600.72 946.023 2580.21 955.544L2611.24 1029.42H2577.74L2550.55 962.409H2506.33ZM2579.66 901.441C2579.66 878.921 2568.86 867.661 2547.25 867.661H2506.33V936.045H2547.8C2558.79 936.045 2566.84 932.932 2571.97 926.707C2577.1 920.299 2579.66 911.877 2579.66 901.441Z" />
    <path d="M2851.87 970.923H2813.42V1029.42H2782.94V841.296H2851.87C2894.53 841.296 2915.86 862.351 2915.86 904.462C2915.86 926.066 2910.46 942.544 2899.65 953.896C2889.04 965.247 2873.11 970.923 2851.87 970.923ZM2813.42 944.558H2851.59C2873.56 944.558 2884.55 931.193 2884.55 904.462C2884.55 891.645 2881.9 882.308 2876.59 876.449C2871.28 870.59 2862.95 867.661 2851.59 867.661H2813.42V944.558Z" />
    <path d="M3082.51 1029.42V841.296H3201.15V867.935H3113V921.214H3184.68V947.579H3113V1002.51H3201.15V1029.42H3082.51Z" />
    <path d="M3371.63 1029.42V841.296H3424.91L3482.03 1002.51H3486.15V841.296H3516.64V1029.42H3464.46L3405.96 867.935H3402.11V1029.42H3371.63Z" />
    <path d="M3679.1 868.484V841.296H3816.41V868.484H3763.41V1029.42H3732.65V868.484H3679.1Z" />
    <path d="M4009.58 962.409V1029.42H3979.1V841.296H4050.5C4092.98 841.296 4114.22 861.252 4114.22 901.166C4114.22 927.897 4103.96 946.023 4083.46 955.544L4114.49 1029.42H4080.99L4053.8 962.409H4009.58ZM4082.91 901.441C4082.91 878.921 4072.11 867.661 4050.5 867.661H4009.58V936.045H4051.05C4062.04 936.045 4070.09 932.932 4075.22 926.707C4080.35 920.299 4082.91 911.877 4082.91 901.441Z" />
    <path d="M4349.22 1029.42H4318.46V951.973L4259.42 841.296H4293.75L4333.57 922.038L4373.67 841.296H4407.72L4349.22 951.973V1029.42Z" />
    <path d="M1256.05 461.656H1130.53V652.637H1031V38.4494H1256.05C1395.33 38.4494 1464.97 107.191 1464.97 244.673C1464.97 315.207 1447.33 369.005 1412.07 406.065C1377.4 443.126 1325.39 461.656 1256.05 461.656ZM1130.53 375.58H1255.16C1326.89 375.58 1362.75 331.944 1362.75 244.673C1362.75 202.831 1354.08 172.345 1336.75 153.217C1319.41 134.089 1292.22 124.525 1255.16 124.525H1130.53V375.58Z" />
    <path d="M1549.09 652.637V204.325H1645.92V258.122C1696.73 225.246 1747.54 204.026 1798.35 194.462V292.194C1746.94 302.356 1703.01 315.506 1666.55 331.646L1646.82 339.715V652.637H1549.09Z" />
    <path d="M1893.77 252.743C1924.85 213.889 1976.26 194.462 2047.99 194.462C2119.72 194.462 2170.83 213.889 2201.31 252.743C2232.39 291.596 2247.94 349.877 2247.94 427.584C2247.94 505.292 2232.99 563.871 2203.11 603.323C2173.22 642.774 2121.51 662.5 2047.99 662.5C1974.47 662.5 1922.76 642.774 1892.87 603.323C1862.99 563.871 1848.04 505.292 1848.04 427.584C1848.04 349.877 1863.28 291.596 1893.77 252.743ZM1967.29 544.146C1981.04 568.056 2007.94 580.011 2047.99 580.011C2088.04 580.011 2114.94 568.056 2128.69 544.146C2142.43 520.236 2149.31 481.083 2149.31 426.688C2149.31 372.293 2141.84 333.738 2126.89 311.023C2112.55 288.309 2086.25 276.951 2047.99 276.951C2009.73 276.951 1983.13 288.309 1968.19 311.023C1953.84 333.738 1946.67 372.293 1946.67 426.688C1946.67 481.083 1953.54 520.236 1967.29 544.146Z" />
    <path d="M2656.15 296.677C2585.61 287.113 2534.5 282.331 2502.82 282.331C2471.14 282.331 2449.03 286.217 2436.47 293.987C2424.52 301.16 2418.54 312.816 2418.54 328.956C2418.54 345.095 2425.12 356.452 2438.27 363.027C2452.01 369.603 2483.69 377.373 2533.31 386.34C2583.52 394.708 2619.09 408.158 2640.01 426.688C2660.93 445.218 2671.39 478.094 2671.39 525.316C2671.39 572.539 2656.15 607.208 2625.66 629.325C2595.77 651.442 2551.84 662.5 2493.86 662.5C2457.39 662.5 2411.37 657.419 2355.78 647.257L2327.98 642.774L2331.57 561.181C2403.3 570.745 2455 575.527 2486.68 575.527C2518.36 575.527 2540.78 571.642 2553.93 563.871C2567.68 556.101 2574.55 543.249 2574.55 525.316C2574.55 507.384 2567.98 495.13 2554.83 488.555C2542.27 481.382 2511.49 473.91 2462.47 466.139C2414.06 457.771 2378.49 444.919 2355.78 427.584C2333.06 410.25 2321.7 378.569 2321.7 332.542C2321.7 286.515 2337.25 252.145 2368.33 229.43C2400.01 206.716 2440.36 195.359 2489.37 195.359C2527.63 195.359 2574.55 200.141 2630.14 209.705L2657.94 215.084L2656.15 296.677Z" />
    <path d="M3006.5 287.711H2882.77V484.968C2882.77 521.431 2885.46 545.64 2890.84 557.595C2896.22 569.55 2909.97 575.527 2932.08 575.527L3005.6 572.838L3010.09 650.844C2970.04 658.615 2939.55 662.5 2918.63 662.5C2867.82 662.5 2832.86 650.844 2813.73 627.532C2795.2 604.219 2785.93 560.285 2785.93 495.728V287.711H2728.55V204.325H2785.93V74.3144H2882.77V204.325H3006.5V287.711Z" />
    <path d="M3418.41 342.405V546.835C3419.01 559.986 3422.29 569.849 3428.27 576.424C3434.85 582.402 3444.71 586.287 3457.86 588.08L3455.17 662.5C3403.76 662.5 3364.01 651.442 3335.92 629.325C3288.1 651.442 3239.98 662.5 3191.56 662.5C3102.5 662.5 3057.97 614.979 3057.97 519.937C3057.97 474.508 3069.92 441.632 3093.83 421.308C3118.34 400.985 3155.7 388.731 3205.91 384.546L3321.57 374.684V342.405C3321.57 318.495 3316.19 301.758 3305.43 292.194C3295.27 282.63 3280.03 277.848 3259.71 277.848C3221.45 277.848 3173.63 280.239 3116.25 285.021L3087.56 286.814L3083.97 217.774C3149.12 202.233 3208.9 194.462 3263.29 194.462C3318.29 194.462 3357.74 206.417 3381.65 230.327C3406.16 253.639 3418.41 290.999 3418.41 342.405ZM3217.57 453.587C3176.32 457.173 3155.7 479.589 3155.7 520.833C3155.7 562.078 3173.93 582.7 3210.39 582.7C3240.28 582.7 3271.96 577.918 3305.43 568.354L3321.57 562.975V443.724L3217.57 453.587Z" />
    <path d="M3541.1 652.637V204.325H3638.83V652.637H3541.1ZM3541.1 128.112V25H3638.83V128.112H3541.1Z" />
    <path d="M3757.38 652.637V204.325H3854.21V258.122C3905.02 225.246 3955.83 204.026 4006.64 194.462V292.194C3955.23 302.356 3911.3 315.506 3874.83 331.646L3855.11 339.715V652.637H3757.38Z" />
    <path d="M4392.48 296.677C4321.95 287.113 4270.84 282.331 4239.16 282.331C4207.48 282.331 4185.36 286.217 4172.81 293.987C4160.85 301.16 4154.87 312.816 4154.87 328.956C4154.87 345.095 4161.45 356.452 4174.6 363.027C4188.35 369.603 4220.03 377.373 4269.64 386.34C4319.85 394.708 4355.42 408.158 4376.34 426.688C4397.26 445.218 4407.72 478.094 4407.72 525.316C4407.72 572.539 4392.48 607.208 4361.99 629.325C4332.11 651.442 4288.17 662.5 4230.19 662.5C4193.73 662.5 4147.7 657.419 4092.11 647.257L4064.32 642.774L4067.9 561.181C4139.63 570.745 4191.34 575.527 4223.02 575.527C4254.7 575.527 4277.11 571.642 4290.26 563.871C4304.01 556.101 4310.89 543.249 4310.89 525.316C4310.89 507.384 4304.31 495.13 4291.16 488.555C4278.61 481.382 4247.82 473.91 4198.81 466.139C4150.39 457.771 4114.82 444.919 4092.11 427.584C4069.4 410.25 4058.04 378.569 4058.04 332.542C4058.04 286.515 4073.58 252.145 4104.66 229.43C4136.34 206.716 4176.69 195.359 4225.71 195.359C4263.96 195.359 4310.89 200.141 4366.48 209.705L4394.27 215.084L4392.48 296.677Z" />
    <path d="M90.7703 25H120.422V36.1192H90.7703V25Z" />
    <path d="M683.794 158.43H713.445V169.549H683.794V158.43Z" />
    <path d="M87.064 165.843H124.128V536.483H87.064V165.843Z" />
    <path d="M680.087 299.273H717.151V535.741H680.087V299.273Z" />
    <path d="M189.36 302.98H204.186V179.358C196.918 173.006 192.287 165.114 189.36 156.392V302.98Z" />
    <path d="M236.061 311.875H250.887V196.807C245.103 195.552 240.111 194.44 236.061 193.499V311.875Z" />
    <path d="M282.762 320.77H297.587V206.57C292.464 205.523 287.511 204.506 282.762 203.524V320.77Z" />
    <path d="M329.462 328.924H344.288V216.001C339.282 215 334.334 214.007 329.462 213.027V328.924Z" />
    <path d="M376.163 338.561H390.988V225.286C386.048 224.309 381.1 223.329 376.163 222.35V338.561Z" />
    <path d="M422.863 346.715H437.689V234.478C432.813 233.522 427.864 232.551 422.863 231.568V346.715Z" />
    <path d="M469.564 354.869H484.39V243.604C479.628 242.677 474.675 241.711 469.564 240.714V354.869Z" />
    <path d="M516.265 365.247H531.09V252.673C526.9 251.862 521.917 250.896 516.265 249.8V365.247Z" />
    <path d="M562.965 374.142H577.791V260.1C572.517 260.003 567.502 259.587 562.965 259.002V374.142Z" />
    <path d="M609.666 383.038H624.491V250.838C620.278 252.402 615.816 253.982 611.148 255.538C610.656 255.702 610.161 255.861 609.666 256.015V383.038Z" />
    <path fill-rule="evenodd" clip-rule="evenodd" d="M142.66 473.474L661.555 573.547V410.465L629.68 404.318L604.477 399.457L582.98 395.311L557.776 390.451L536.279 386.305L511.076 381.444L489.578 377.298L464.375 372.438L442.878 368.292L417.674 363.431L396.177 359.285L370.974 354.424L349.477 350.279L324.273 345.418L302.776 341.272L277.573 336.411L256.076 332.265L230.872 327.405L209.375 323.259L184.172 318.398L142.66 310.392V473.474ZM639.317 443.823L164.898 351.904V443.823L639.317 541.672V443.823Z" />
    <path d="M713.445 169.549H683.794H651.919V191.788H661.555H735.683H744.578V169.549H713.445Z" />
    <path d="M120.422 36.1192H90.7703H58.8953V58.3576H68.532H142.66H151.555V36.1192H120.422Z" />
    <path d="M661.555 251.09H651.919V262.209H661.555H735.683H744.578V251.09H735.683H661.555Z" />
    <path d="M68.532 128.779H142.66H151.555V117.66H142.66H68.532H58.8953V128.779H68.532Z" />
    <path fill-rule="evenodd" clip-rule="evenodd" d="M68.532 573.547H142.66V473.474V310.392V128.779H68.532V573.547ZM124.128 165.843H87.064V536.483H124.128V165.843Z" />
    <path d="M68.532 117.66H142.66V102.834V83.561V77.6308V58.3576H68.532V117.66Z" />
    <path d="M142.66 77.6308V83.561V102.834H184.542V117.66C184.542 130.912 185.348 144.432 189.36 156.392C192.287 165.114 196.918 173.006 204.186 179.358C210.366 184.76 218.453 189.049 229.019 191.788C230.874 192.269 233.239 192.842 236.061 193.499C240.111 194.44 245.103 195.552 250.887 196.807C259.812 198.742 270.622 201.016 282.762 203.524L297.587 206.57C307.641 208.624 318.35 210.792 329.462 213.027L344.288 216.001C354.731 218.091 365.421 220.219 376.163 222.35L390.988 225.286C401.712 227.406 412.401 229.512 422.863 231.568L437.689 234.478C448.77 236.651 459.477 238.745 469.564 240.714L484.39 243.604C496.398 245.943 507.194 248.041 516.265 249.8L531.09 252.673C540.506 254.495 545.916 255.538 545.916 255.538C549.818 256.725 555.793 258.076 562.965 259.002C567.502 259.587 572.517 260.003 577.791 260.1C587.987 260.288 599.146 259.285 609.666 256.015C610.161 255.861 610.656 255.702 611.148 255.538C615.816 253.982 620.278 252.402 624.491 250.838C642.76 244.059 656.335 237.593 661.555 234.782V209.578C655.131 213.038 636.055 222.032 611.148 230.334C586.241 238.637 557.282 233.794 545.916 230.334C545.916 230.334 302.776 182.892 262.747 172.515C222.718 162.137 213.823 148.794 213.823 117.66V77.6308H142.66Z" />
    <path d="M189.36 302.98H184.172V318.398L209.375 323.259V302.98H204.186H189.36Z" />
    <path d="M236.061 311.875H230.872V327.405L256.076 332.265V311.875H250.887H236.061Z" />
    <path d="M282.762 320.77H277.573V336.411L302.776 341.272V320.77H297.587H282.762Z" />
    <path d="M329.462 328.924H324.273V345.418L349.477 350.279V328.924H344.288H329.462Z" />
    <path d="M376.163 338.561H370.974V354.424L396.177 359.285V338.561H390.988H376.163Z" />
    <path d="M422.863 346.715H417.674V363.431L442.878 368.292V346.715H437.689H422.863Z" />
    <path d="M469.564 354.869H464.375V372.438L489.578 377.298V354.869H484.39H469.564Z" />
    <path d="M164.898 351.904L639.317 443.823V541.672L164.898 443.823V351.904Z" />
    <path d="M516.265 365.247H511.076V381.444L536.279 386.305V365.247H531.09H516.265Z" />
    <path d="M562.965 374.142H557.776V390.451L582.98 395.311V374.142H577.791H562.965Z" />
    <path d="M609.666 383.038H604.477V399.457L629.68 404.318V383.038H624.491H609.666Z" />
    <path d="M661.555 251.09H735.683V191.788H661.555V209.578V234.782V251.09Z" />
    <path fill-rule="evenodd" clip-rule="evenodd" d="M661.555 573.547H735.683V262.209H661.555V410.465V573.547ZM717.151 299.273H680.087V535.741H717.151V299.273Z" />
    <path d="M58.8953 606.904H50V618.023H58.8953H744.578H754.215V606.904H744.578H651.919H151.555H58.8953Z" />
    <path d="M744.578 618.023H58.8953V662.5H744.578V618.023Z" />
    <path d="M58.8953 606.904H151.555V573.547H142.66H68.532H58.8953V606.904Z" />
    <path d="M651.919 606.904H744.578V573.547H735.683H661.555H651.919V606.904Z" />
  </g>
  <defs>
    <filter id="filter0_d" x="0" y="0" width="4457.72" height="1107.44" filterUnits="userSpaceOnUse" color-interpolation-filters="sRGB">
      <feFlood flood-opacity="0" result="BackgroundImageFix"/>
      <feColorMatrix in="SourceAlpha" type="matrix" values="0 0 0 0 0 0 0 0 0 0 0 0 0 0 0 0 0 0 127 0"/>
      <feOffset dy="25"/>
      <feGaussianBlur stdDeviation="25"/>
      <feColorMatrix type="matrix" values="0 0 0 0 0 0 0 0 0 0 0 0 0 0 0 0 0 0 0.2 0"/>
      <feBlend mode="normal" in2="BackgroundImageFix" result="effect1_dropShadow"/>
      <feBlend mode="normal" in="SourceGraphic" in2="effect1_dropShadow" result="shape"/>
    </filter>
  </defs>
</svg>
