<svg width="950" height="860" viewBox="0 0 950 860" fill="none" xmlns="http://www.w3.org/2000/svg">
<path d="M55 0H95V15H55V0Z" fill="#CACFDE"/>
<path d="M855 180H895V195H855V180Z" fill="#CACFDE"/>
<path d="M50 190H100V690H50V190Z" fill="#CACFDE"/>
<path d="M850 370H900V689H850V370Z" fill="#CACFDE"/>
<path d="M188 375H208V208.232C198.195 199.663 191.947 189.016 188 177.251V375Z" fill="#CACFDE"/>
<path d="M251 387H271V231.77C263.198 230.078 256.463 228.578 251 227.308V387Z" fill="#CACFDE"/>
<path d="M314 399H334V244.941C327.089 243.529 320.407 242.157 314 240.833V399Z" fill="#CACFDE"/>
<path d="M377 410H397V257.664C390.248 256.313 383.572 254.974 377 253.653V410Z" fill="#CACFDE"/>
<path d="M440 423H460V270.189C453.335 268.871 446.66 267.55 440 266.229V423Z" fill="#CACFDE"/>
<path d="M503 434H523V282.59C516.422 281.301 509.746 279.99 503 278.664V434Z" fill="#CACFDE"/>
<path d="M566 445H586V294.901C579.576 293.65 572.895 292.348 566 291.002V445Z" fill="#CACFDE"/>
<path d="M629 459H649V307.135C643.348 306.041 636.626 304.739 629 303.26V459Z" fill="#CACFDE"/>
<path d="M692 471H712V317.155C704.886 317.024 698.12 316.463 692 315.673V471Z" fill="#CACFDE"/>
<path d="M755 483H775V304.661C769.317 306.77 763.296 308.901 757 311C756.335 311.222 755.669 311.436 755 311.644V483Z" fill="#CACFDE"/>
<path fill-rule="evenodd" clip-rule="evenodd" d="M125 605L825 740V520L782 511.707L748 505.15L719 499.557L685 493L656 487.407L622 480.85L593 475.257L559 468.7L530 463.107L496 456.55L467 450.957L433 444.4L404 438.807L370 432.25L341 426.657L307 420.1L278 414.507L244 407.95L215 402.357L181 395.8L125 385V605ZM795 565L155 441V565L795 697V565Z" fill="#CACFDE"/>
<path d="M895 195H855H812V225H825H925H937V195H895Z" fill="#CACFDE"/>
<path d="M95 15H55H12V45H25H125H137V15H95Z" fill="#CACFDE"/>
<path d="M825 305H812V320H825H925H937V305H925H825Z" fill="#CACFDE"/>
<path d="M25 140H125H137V125H125H25H12V140H25Z" fill="#CACFDE"/>
<path fill-rule="evenodd" clip-rule="evenodd" d="M25 740H125V605V385V140H25V740ZM100 190H50V690H100V190Z" fill="#CACFDE"/>
<path d="M25 125H125V105V79V71V45H25V125Z" fill="#CACFDE"/>
<path d="M125 71V79V105H181.5V125C181.5 142.877 182.587 161.117 188 177.251C191.947 189.016 198.195 199.663 208 208.232C216.337 215.519 227.247 221.305 241.5 225C244.003 225.649 247.193 226.423 251 227.308C256.463 228.578 263.198 230.078 271 231.77C283.041 234.382 297.624 237.449 314 240.833L334 244.941C347.562 247.712 362.009 250.637 377 253.653L397 257.664C411.089 260.483 425.508 263.354 440 266.229L460 270.189C474.467 273.049 488.886 275.89 503 278.664L523 282.59C537.949 285.521 552.392 288.346 566 291.002L586 294.901C602.2 298.057 616.763 300.886 629 303.26L649 307.135C661.702 309.593 669 311 669 311C674.264 312.602 682.324 314.424 692 315.673C698.12 316.463 704.886 317.024 712 317.155C725.755 317.408 740.808 316.055 755 311.644C755.669 311.436 756.335 311.222 757 311C763.296 308.901 769.317 306.77 775 304.661C799.645 295.515 817.957 286.792 825 283V249C816.333 253.667 790.6 265.8 757 277C723.4 288.2 684.333 281.667 669 277C669 277 341 213 287 199C233 185 221 167 221 125V71H125Z" fill="#CACFDE"/>
<path d="M188 375H181V395.8L215 402.357V375H208H188Z" fill="#CACFDE"/>
<path d="M251 387H244V407.95L278 414.507V387H271H251Z" fill="#CACFDE"/>
<path d="M314 399H307V420.1L341 426.657V399H334H314Z" fill="#CACFDE"/>
<path d="M377 410H370V432.25L404 438.807V410H397H377Z" fill="#CACFDE"/>
<path d="M440 423H433V444.4L467 450.957V423H460H440Z" fill="#CACFDE"/>
<path d="M503 434H496V456.55L530 463.107V434H523H503Z" fill="#CACFDE"/>
<path d="M566 445H559V468.7L593 475.257V445H586H566Z" fill="#CACFDE"/>
<path d="M155 441L795 565V697L155 565V441Z" fill="#CACFDE"/>
<path d="M629 459H622V480.85L656 487.407V459H649H629Z" fill="#CACFDE"/>
<path d="M692 471H685V493L719 499.557V471H712H692Z" fill="#CACFDE"/>
<path d="M755 483H748V505.15L782 511.707V483H775H755Z" fill="#CACFDE"/>
<path d="M825 305H925V225H825V249V283V305Z" fill="#CACFDE"/>
<path fill-rule="evenodd" clip-rule="evenodd" d="M825 740H925V320H825V520V740ZM900 370H850V689H900V370Z" fill="#CACFDE"/>
<path d="M12 785H0V800H12H937H950V785H937H812H137H12Z" fill="#CACFDE"/>
<path d="M937 800H12V860H937V800Z" fill="#CACFDE"/>
<path d="M12 785H137V740H125H25H12V785Z" fill="#CACFDE"/>
<path d="M812 785H937V740H925H825H812V785Z" fill="#CACFDE"/>
<path d="M55 0H95V15H55V0Z" fill="#7883B0"/>
<path d="M855 180H895V195H855V180Z" fill="#7883B0"/>
<path d="M50 190H100V690H50V190Z" fill="#7883B0"/>
<path d="M850 370H900V689H850V370Z" fill="#7883B0"/>
<path d="M895 195H855H812V225H825H925H937V195H895Z" fill="#7883B0"/>
<path d="M95 15H55H12V45H25H125H137V15H95Z" fill="#7883B0"/>
<path d="M825 305H812V320H825H925H937V305H925H825Z" fill="#7883B0"/>
<path d="M25 140H125H137V125H125H25H12V140H25Z" fill="#7883B0"/>
<path d="M125 71V79V105H181.5V125C181.5 142.877 182.587 161.117 188 177.251C191.947 189.016 198.195 199.663 208 208.232C216.337 215.519 227.247 221.305 241.5 225C244.003 225.649 247.193 226.423 251 227.308C256.463 228.578 263.198 230.078 271 231.77C283.041 234.382 297.624 237.449 314 240.833L334 244.941C347.562 247.712 362.009 250.637 377 253.653L397 257.664C411.089 260.483 425.508 263.354 440 266.229L460 270.189C474.467 273.049 488.886 275.89 503 278.664L523 282.59C537.949 285.521 552.392 288.346 566 291.002L586 294.901C602.2 298.057 616.763 300.886 629 303.26L649 307.135C661.702 309.593 669 311 669 311C674.264 312.602 682.324 314.424 692 315.673C698.12 316.463 704.886 317.024 712 317.155C725.755 317.408 740.808 316.055 755 311.644C755.669 311.436 756.335 311.222 757 311C763.296 308.901 769.317 306.77 775 304.661C799.645 295.515 817.957 286.792 825 283V249C816.333 253.667 790.6 265.8 757 277C723.4 288.2 684.333 281.667 669 277C669 277 341 213 287 199C233 185 221 167 221 125V71H125Z" fill="#7883B0"/>
<path d="M188 375H181V395.8L215 402.357V375H208H188Z" fill="#7883B0"/>
<path d="M251 387H244V407.95L278 414.507V387H271H251Z" fill="#7883B0"/>
<path d="M314 399H307V420.1L341 426.657V399H334H314Z" fill="#7883B0"/>
<path d="M377 410H370V432.25L404 438.807V410H397H377Z" fill="#7883B0"/>
<path d="M440 423H433V444.4L467 450.957V423H460H440Z" fill="#7883B0"/>
<path d="M503 434H496V456.55L530 463.107V434H523H503Z" fill="#7883B0"/>
<path d="M566 445H559V468.7L593 475.257V445H586H566Z" fill="#7883B0"/>
<path d="M155 441L795 565V697L155 565V441Z" fill="#7883B0"/>
<path d="M629 459H622V480.85L656 487.407V459H649H629Z" fill="#7883B0"/>
<path d="M692 471H685V493L719 499.557V471H712H692Z" fill="#7883B0"/>
<path d="M755 483H748V505.15L782 511.707V483H775H755Z" fill="#7883B0"/>
<path d="M12 785H137V740H125H25H12V785Z" fill="#7883B0"/>
<path d="M812 785H937V740H925H825H812V785Z" fill="#7883B0"/>
<path d="M55 0H95V15H55V0Z" fill="#3E4E8E"/>
<path d="M855 180H895V195H855V180Z" fill="#3E4E8E"/>
<path d="M50 190H100V690H50V190Z" fill="#3E4E8E"/>
<path d="M850 370H900V689H850V370Z" fill="#3E4E8E"/>
<path d="M895 195H855H812V225H825H925H937V195H895Z" fill="#3E4E8E"/>
<path d="M95 15H55H12V45H25H125H137V15H95Z" fill="#3E4E8E"/>
<path d="M155 441L795 565V697L155 565V441Z" fill="#3E4E8E"/>
<path d="M125 71V79V105H181.5V125C181.5 142.877 182.587 161.117 188 177.251C191.947 189.016 198.195 199.663 208 208.232C216.337 215.519 227.247 221.305 241.5 225C244.003 225.649 247.193 226.423 251 227.308C256.463 228.578 263.198 230.078 271 231.77C283.041 234.382 297.624 237.449 314 240.833L334 244.941C347.562 247.712 362.009 250.637 377 253.653L397 257.664C411.089 260.483 425.508 263.354 440 266.229L460 270.189C474.467 273.049 488.886 275.89 503 278.664L523 282.59C537.949 285.521 552.392 288.346 566 291.002L586 294.901C602.2 298.057 616.763 300.886 629 303.26L649 307.135C661.702 309.593 669 311 669 311C674.264 312.602 682.324 314.424 692 315.673C698.12 316.463 704.886 317.024 712 317.155C725.755 317.408 740.808 316.055 755 311.644C755.669 311.436 756.335 311.222 757 311C763.296 308.901 769.317 306.77 775 304.661C799.645 295.515 817.957 286.792 825 283V249C816.333 253.667 790.6 265.8 757 277C723.4 288.2 684.333 281.667 669 277C669 277 341 213 287 199C233 185 221 167 221 125V71H125Z" fill="#3E4E8E"/>
<path d="M937 800H12V860H937V800Z" fill="#3E4E8E"/>
</svg>
