<svg viewBox="0 0 4274 638" fill="none" xmlns="http://www.w3.org/2000/svg">
  <path d="M40.7703 0H70.4215V11.1192H40.7703V0Z" fill="#CACFDE"/>
  <path d="M633.794 133.43H663.445V144.549H633.794V133.43Z" fill="#CACFDE"/>
  <path d="M37.064 140.843H74.1279V511.483H37.064V140.843Z" fill="#CACFDE"/>
  <path d="M630.087 274.273H667.151V510.741H630.087V274.273Z" fill="#CACFDE"/>
  <path d="M139.36 277.98H154.186V154.358C146.918 148.006 142.287 140.114 139.36 131.392V277.98Z" fill="#CACFDE"/>
  <path d="M186.061 286.875H200.887V171.807C195.103 170.552 190.111 169.44 186.061 168.499V286.875Z" fill="#CACFDE"/>
  <path d="M232.762 295.77H247.587V181.57C242.464 180.523 237.511 179.506 232.762 178.524V295.77Z" fill="#CACFDE"/>
  <path d="M279.462 303.924H294.288V191.001C289.282 190 284.334 189.007 279.462 188.027V303.924Z" fill="#CACFDE"/>
  <path d="M326.163 313.561H340.988V200.286C336.048 199.309 331.1 198.329 326.163 197.35V313.561Z" fill="#CACFDE"/>
  <path d="M372.863 321.715H387.689V209.478C382.813 208.522 377.864 207.551 372.863 206.568V321.715Z" fill="#CACFDE"/>
  <path d="M419.564 329.869H434.39V218.604C429.628 217.677 424.675 216.711 419.564 215.714V329.869Z" fill="#CACFDE"/>
  <path d="M466.265 340.247H481.09V227.673C476.9 226.862 471.917 225.896 466.265 224.8V340.247Z" fill="#CACFDE"/>
  <path d="M512.965 349.142H527.791V235.1C522.517 235.003 517.502 234.587 512.965 234.002V349.142Z" fill="#CACFDE"/>
  <path d="M559.666 358.038H574.491V225.838C570.278 227.402 565.816 228.982 561.148 230.538C560.656 230.702 560.161 230.861 559.666 231.015V358.038Z" fill="#CACFDE"/>
  <path fill-rule="evenodd" clip-rule="evenodd" d="M92.6599 448.474L611.555 548.547V385.465L579.68 379.318L554.477 374.457L532.98 370.311L507.776 365.451L486.279 361.305L461.076 356.444L439.578 352.298L414.375 347.438L392.878 343.292L367.674 338.431L346.177 334.285L320.974 329.424L299.477 325.279L274.273 320.418L252.776 316.272L227.573 311.411L206.076 307.265L180.872 302.405L159.375 298.259L134.172 293.398L92.6599 285.392V448.474ZM589.317 418.823L114.898 326.904V418.823L589.317 516.672V418.823Z" fill="#CACFDE"/>
  <path d="M663.445 144.549H633.794H601.919V166.788H611.555H685.683H694.578V144.549H663.445Z" fill="#CACFDE"/>
  <path d="M70.4215 11.1192H40.7703H8.89535V33.3576H18.532H92.6599H101.555V11.1192H70.4215Z" fill="#CACFDE"/>
  <path d="M611.555 226.09H601.919V237.209H611.555H685.683H694.578V226.09H685.683H611.555Z" fill="#CACFDE"/>
  <path d="M18.532 103.779H92.6599H101.555V92.6599H92.6599H18.532H8.89535V103.779H18.532Z" fill="#CACFDE"/>
  <path fill-rule="evenodd" clip-rule="evenodd" d="M18.532 548.547H92.6599V448.474V285.392V103.779H18.532V548.547ZM74.1279 140.843H37.064V511.483H74.1279V140.843Z" fill="#CACFDE"/>
  <path d="M18.532 92.6599H92.6599V77.8343V58.561V52.6308V33.3576H18.532V92.6599Z" fill="#CACFDE"/>
  <path d="M92.6599 52.6308V58.561V77.8343H134.542V92.6599C134.542 105.912 135.348 119.432 139.36 131.392C142.287 140.114 146.918 148.006 154.186 154.358C160.366 159.76 168.453 164.049 179.019 166.788C180.874 167.269 183.239 167.842 186.061 168.499C190.111 169.44 195.103 170.552 200.887 171.807C209.812 173.742 220.622 176.016 232.762 178.524L247.587 181.57C257.641 183.624 268.35 185.792 279.462 188.027L294.288 191.001C304.731 193.091 315.421 195.219 326.163 197.35L340.988 200.286C351.712 202.406 362.401 204.512 372.863 206.568L387.689 209.478C398.77 211.651 409.477 213.745 419.564 215.714L434.39 218.604C446.398 220.943 457.194 223.041 466.265 224.8L481.09 227.673C490.506 229.495 495.916 230.538 495.916 230.538C499.818 231.725 505.793 233.076 512.965 234.002C517.502 234.587 522.517 235.003 527.791 235.1C537.987 235.288 549.146 234.285 559.666 231.015C560.161 230.861 560.656 230.702 561.148 230.538C565.816 228.982 570.278 227.402 574.491 225.838C592.76 219.059 606.335 212.593 611.555 209.782V184.578C605.131 188.038 586.055 197.032 561.148 205.334C536.241 213.637 507.282 208.794 495.916 205.334C495.916 205.334 252.776 157.892 212.747 147.515C172.718 137.137 163.823 123.794 163.823 92.6599V52.6308H92.6599Z" fill="#CACFDE"/>
  <path d="M139.36 277.98H134.172V293.398L159.375 298.259V277.98H154.186H139.36Z" fill="#CACFDE"/>
  <path d="M186.061 286.875H180.872V302.405L206.076 307.265V286.875H200.887H186.061Z" fill="#CACFDE"/>
  <path d="M232.762 295.77H227.573V311.411L252.776 316.272V295.77H247.587H232.762Z" fill="#CACFDE"/>
  <path d="M279.462 303.924H274.273V320.418L299.477 325.279V303.924H294.288H279.462Z" fill="#CACFDE"/>
  <path d="M326.163 313.561H320.974V329.424L346.177 334.285V313.561H340.988H326.163Z" fill="#CACFDE"/>
  <path d="M372.863 321.715H367.674V338.431L392.878 343.292V321.715H387.689H372.863Z" fill="#CACFDE"/>
  <path d="M419.564 329.869H414.375V347.438L439.578 352.298V329.869H434.39H419.564Z" fill="#CACFDE"/>
  <path d="M114.898 326.904L589.317 418.823V516.672L114.898 418.823V326.904Z" fill="#CACFDE"/>
  <path d="M466.265 340.247H461.076V356.444L486.279 361.305V340.247H481.09H466.265Z" fill="#CACFDE"/>
  <path d="M512.965 349.142H507.776V365.451L532.98 370.311V349.142H527.791H512.965Z" fill="#CACFDE"/>
  <path d="M559.666 358.038H554.477V374.457L579.68 379.318V358.038H574.491H559.666Z" fill="#CACFDE"/>
  <path d="M611.555 226.09H685.683V166.788H611.555V184.578V209.782V226.09Z" fill="#CACFDE"/>
  <path fill-rule="evenodd" clip-rule="evenodd" d="M611.555 548.547H685.683V237.209H611.555V385.465V548.547ZM667.151 274.273H630.087V510.741H667.151V274.273Z" fill="#CACFDE"/>
  <path d="M8.89535 581.904H0V593.023H8.89535H694.578H704.215V581.904H694.578H601.919H101.555H8.89535Z" fill="#CACFDE"/>
  <path d="M694.578 593.023H8.89535V637.5H694.578V593.023Z" fill="#CACFDE"/>
  <path d="M8.89535 581.904H101.555V548.547H92.6599H18.532H8.89535V581.904Z" fill="#CACFDE"/>
  <path d="M601.919 581.904H694.578V548.547H685.683H611.555H601.919V581.904Z" fill="#CACFDE"/>
  <path d="M40.7703 0H70.4215V11.1192H40.7703V0Z" fill="#7883B0"/>
  <path d="M633.794 133.43H663.445V144.549H633.794V133.43Z" fill="#7883B0"/>
  <path d="M37.064 140.843H74.1279V511.483H37.064V140.843Z" fill="#7883B0"/>
  <path d="M630.087 274.273H667.151V510.741H630.087V274.273Z" fill="#7883B0"/>
  <path d="M663.445 144.549H633.794H601.919V166.788H611.555H685.683H694.578V144.549H663.445Z" fill="#7883B0"/>
  <path d="M70.4215 11.1192H40.7703H8.89535V33.3576H18.532H92.6599H101.555V11.1192H70.4215Z" fill="#7883B0"/>
  <path d="M611.555 226.09H601.919V237.209H611.555H685.683H694.578V226.09H685.683H611.555Z" fill="#7883B0"/>
  <path d="M18.532 103.779H92.6599H101.555V92.6599H92.6599H18.532H8.89535V103.779H18.532Z" fill="#7883B0"/>
  <path d="M92.6599 52.6308V58.561V77.8343H134.542V92.6599C134.542 105.912 135.348 119.432 139.36 131.392C142.287 140.114 146.918 148.006 154.186 154.358C160.366 159.76 168.453 164.049 179.019 166.788C180.874 167.269 183.239 167.842 186.061 168.499C190.111 169.44 195.103 170.552 200.887 171.807C209.812 173.742 220.622 176.016 232.762 178.524L247.587 181.57C257.641 183.624 268.35 185.792 279.462 188.027L294.288 191.001C304.731 193.091 315.421 195.219 326.163 197.35L340.988 200.286C351.712 202.406 362.401 204.512 372.863 206.568L387.689 209.478C398.77 211.651 409.477 213.745 419.564 215.714L434.39 218.604C446.398 220.943 457.194 223.041 466.265 224.8L481.09 227.673C490.506 229.495 495.916 230.538 495.916 230.538C499.818 231.725 505.793 233.076 512.965 234.002C517.502 234.587 522.517 235.003 527.791 235.1C537.987 235.288 549.146 234.285 559.666 231.015C560.161 230.861 560.656 230.702 561.148 230.538C565.816 228.982 570.278 227.402 574.491 225.838C592.76 219.059 606.335 212.593 611.555 209.782V184.578C605.131 188.038 586.055 197.032 561.148 205.334C536.241 213.637 507.282 208.794 495.916 205.334C495.916 205.334 252.776 157.892 212.747 147.515C172.718 137.137 163.823 123.794 163.823 92.6599V52.6308H92.6599Z" fill="#7883B0"/>
  <path d="M139.36 277.98H134.172V293.398L159.375 298.259V277.98H154.186H139.36Z" fill="#7883B0"/>
  <path d="M186.061 286.875H180.872V302.405L206.076 307.265V286.875H200.887H186.061Z" fill="#7883B0"/>
  <path d="M232.762 295.77H227.573V311.411L252.776 316.272V295.77H247.587H232.762Z" fill="#7883B0"/>
  <path d="M279.462 303.924H274.273V320.418L299.477 325.279V303.924H294.288H279.462Z" fill="#7883B0"/>
  <path d="M326.163 313.561H320.974V329.424L346.177 334.285V313.561H340.988H326.163Z" fill="#7883B0"/>
  <path d="M372.863 321.715H367.674V338.431L392.878 343.292V321.715H387.689H372.863Z" fill="#7883B0"/>
  <path d="M419.564 329.869H414.375V347.438L439.578 352.298V329.869H434.39H419.564Z" fill="#7883B0"/>
  <path d="M114.898 326.904L589.317 418.823V516.672L114.898 418.823V326.904Z" fill="#7883B0"/>
  <path d="M466.265 340.247H461.076V356.444L486.279 361.305V340.247H481.09H466.265Z" fill="#7883B0"/>
  <path d="M512.965 349.142H507.776V365.451L532.98 370.311V349.142H527.791H512.965Z" fill="#7883B0"/>
  <path d="M559.666 358.038H554.477V374.457L579.68 379.318V358.038H574.491H559.666Z" fill="#7883B0"/>
  <path d="M8.89535 581.904H101.555V548.547H92.6599H18.532H8.89535V581.904Z" fill="#7883B0"/>
  <path d="M601.919 581.904H694.578V548.547H685.683H611.555H601.919V581.904Z" fill="#7883B0"/>
  <path d="M40.7703 0H70.4215V11.1192H40.7703V0Z" fill="#3E4E8E"/>
  <path d="M633.794 133.43H663.445V144.549H633.794V133.43Z" fill="#3E4E8E"/>
  <path d="M37.064 140.843H74.1279V511.483H37.064V140.843Z" fill="#3E4E8E"/>
  <path d="M630.087 274.273H667.151V510.741H630.087V274.273Z" fill="#3E4E8E"/>
  <path d="M663.445 144.549H633.794H601.919V166.788H611.555H685.683H694.578V144.549H663.445Z" fill="#3E4E8E"/>
  <path d="M70.4215 11.1192H40.7703H8.89535V33.3576H18.532H92.6599H101.555V11.1192H70.4215Z" fill="#3E4E8E"/>
  <path d="M114.898 326.904L589.317 418.823V516.672L114.898 418.823V326.904Z" fill="#3E4E8E"/>
  <path d="M92.6599 52.6308V58.561V77.8343H134.542V92.6599C134.542 105.912 135.348 119.432 139.36 131.392C142.287 140.114 146.918 148.006 154.186 154.358C160.366 159.76 168.453 164.049 179.019 166.788C180.874 167.269 183.239 167.842 186.061 168.499C190.111 169.44 195.103 170.552 200.887 171.807C209.812 173.742 220.622 176.016 232.762 178.524L247.587 181.57C257.641 183.624 268.35 185.792 279.462 188.027L294.288 191.001C304.731 193.091 315.421 195.219 326.163 197.35L340.988 200.286C351.712 202.406 362.401 204.512 372.863 206.568L387.689 209.478C398.77 211.651 409.477 213.745 419.564 215.714L434.39 218.604C446.398 220.943 457.194 223.041 466.265 224.8L481.09 227.673C490.506 229.495 495.916 230.538 495.916 230.538C499.818 231.725 505.793 233.076 512.965 234.002C517.502 234.587 522.517 235.003 527.791 235.1C537.987 235.288 549.146 234.285 559.666 231.015C560.161 230.861 560.656 230.702 561.148 230.538C565.816 228.982 570.278 227.402 574.491 225.838C592.76 219.059 606.335 212.593 611.555 209.782V184.578C605.131 188.038 586.055 197.032 561.148 205.334C536.241 213.637 507.282 208.794 495.916 205.334C495.916 205.334 252.776 157.892 212.747 147.515C172.718 137.137 163.823 123.794 163.823 92.6599V52.6308H92.6599Z" fill="#3E4E8E"/>
  <path d="M694.578 593.023H8.89535V637.5H694.578V593.023Z" fill="#3E4E8E"/>
  <path d="M1122.05 436.656H996.525V627.637H897V13.4494H1122.05C1261.33 13.4494 1330.97 82.1906 1330.97 219.673C1330.97 290.207 1313.33 344.005 1278.07 381.065C1243.4 418.126 1191.39 436.656 1122.05 436.656ZM996.525 350.58H1121.16C1192.89 350.58 1228.75 306.944 1228.75 219.673C1228.75 177.831 1220.08 147.345 1202.75 128.217C1185.41 109.089 1158.22 99.5253 1121.16 99.5253H996.525V350.58Z" fill="#3E4E8E"/>
  <path d="M1415.09 627.637V179.325H1511.92V233.122C1562.73 200.246 1613.54 179.026 1664.35 169.462V267.194C1612.94 277.356 1569.01 290.506 1532.55 306.646L1512.82 314.715V627.637H1415.09Z" fill="#3E4E8E"/>
  <path d="M1759.77 227.743C1790.85 188.889 1842.26 169.462 1913.99 169.462C1985.72 169.462 2036.83 188.889 2067.31 227.743C2098.39 266.596 2113.94 324.877 2113.94 402.584C2113.94 480.292 2098.99 538.871 2069.11 578.323C2039.22 617.774 1987.51 637.5 1913.99 637.5C1840.47 637.5 1788.76 617.774 1758.87 578.323C1728.99 538.871 1714.04 480.292 1714.04 402.584C1714.04 324.877 1729.28 266.596 1759.77 227.743ZM1833.29 519.146C1847.04 543.056 1873.94 555.011 1913.99 555.011C1954.04 555.011 1980.94 543.056 1994.69 519.146C2008.43 495.236 2015.31 456.083 2015.31 401.688C2015.31 347.293 2007.84 308.738 1992.89 286.023C1978.55 263.309 1952.25 251.951 1913.99 251.951C1875.73 251.951 1849.13 263.309 1834.19 286.023C1819.84 308.738 1812.67 347.293 1812.67 401.688C1812.67 456.083 1819.54 495.236 1833.29 519.146Z" fill="#3E4E8E"/>
  <path d="M2522.15 271.677C2451.61 262.113 2400.5 257.331 2368.82 257.331C2337.14 257.331 2315.03 261.217 2302.47 268.987C2290.52 276.16 2284.54 287.816 2284.54 303.956C2284.54 320.095 2291.12 331.452 2304.27 338.027C2318.01 344.603 2349.69 352.373 2399.31 361.34C2449.52 369.708 2485.09 383.158 2506.01 401.688C2526.93 420.218 2537.39 453.094 2537.39 500.316C2537.39 547.539 2522.15 582.208 2491.66 604.325C2461.77 626.442 2417.84 637.5 2359.86 637.5C2323.39 637.5 2277.37 632.419 2221.78 622.257L2193.98 617.774L2197.57 536.181C2269.3 545.745 2321 550.527 2352.68 550.527C2384.36 550.527 2406.78 546.642 2419.93 538.871C2433.68 531.101 2440.55 518.249 2440.55 500.316C2440.55 482.384 2433.98 470.13 2420.83 463.555C2408.27 456.382 2377.49 448.91 2328.47 441.139C2280.06 432.771 2244.49 419.919 2221.78 402.584C2199.06 385.25 2187.7 353.569 2187.7 307.542C2187.7 261.515 2203.25 227.145 2234.33 204.43C2266.01 181.716 2306.36 170.359 2355.37 170.359C2393.63 170.359 2440.55 175.141 2496.14 184.705L2523.94 190.084L2522.15 271.677Z" fill="#3E4E8E"/>
  <path d="M2872.5 262.711H2748.77V459.968C2748.77 496.431 2751.46 520.64 2756.84 532.595C2762.22 544.55 2775.97 550.527 2798.08 550.527L2871.6 547.838L2876.09 625.844C2836.04 633.615 2805.55 637.5 2784.63 637.5C2733.82 637.5 2698.86 625.844 2679.73 602.532C2661.2 579.219 2651.93 535.285 2651.93 470.728V262.711H2594.55V179.325H2651.93V49.3144H2748.77V179.325H2872.5V262.711Z" fill="#3E4E8E"/>
  <path d="M3284.41 317.405V521.835C3285.01 534.986 3288.29 544.849 3294.27 551.424C3300.85 557.402 3310.71 561.287 3323.86 563.08L3321.17 637.5C3269.76 637.5 3230.01 626.442 3201.92 604.325C3154.1 626.442 3105.98 637.5 3057.56 637.5C2968.5 637.5 2923.97 589.979 2923.97 494.937C2923.97 449.508 2935.92 416.632 2959.83 396.308C2984.34 375.985 3021.7 363.731 3071.91 359.546L3187.57 349.684V317.405C3187.57 293.495 3182.19 276.758 3171.43 267.194C3161.27 257.63 3146.03 252.848 3125.71 252.848C3087.45 252.848 3039.63 255.239 2982.25 260.021L2953.56 261.814L2949.97 192.774C3015.12 177.233 3074.9 169.462 3129.29 169.462C3184.29 169.462 3223.74 181.417 3247.65 205.327C3272.16 228.639 3284.41 265.999 3284.41 317.405ZM3083.57 428.587C3042.32 432.173 3021.7 454.589 3021.7 495.833C3021.7 537.078 3039.93 557.7 3076.39 557.7C3106.28 557.7 3137.96 552.918 3171.43 543.354L3187.57 537.975V418.724L3083.57 428.587Z" fill="#3E4E8E"/>
  <path d="M3407.1 627.637V179.325H3504.83V627.637H3407.1ZM3407.1 103.112V0H3504.83V103.112H3407.1Z" fill="#3E4E8E"/>
  <path d="M3623.38 627.637V179.325H3720.21V233.122C3771.02 200.246 3821.83 179.026 3872.64 169.462V267.194C3821.23 277.356 3777.3 290.506 3740.83 306.646L3721.11 314.715V627.637H3623.38Z" fill="#3E4E8E"/>
  <path d="M4258.48 271.677C4187.95 262.113 4136.84 257.331 4105.16 257.331C4073.48 257.331 4051.36 261.217 4038.81 268.987C4026.85 276.16 4020.87 287.816 4020.87 303.956C4020.87 320.095 4027.45 331.452 4040.6 338.027C4054.35 344.603 4086.03 352.373 4135.64 361.34C4185.85 369.708 4221.42 383.158 4242.34 401.688C4263.26 420.218 4273.72 453.094 4273.72 500.316C4273.72 547.539 4258.48 582.208 4227.99 604.325C4198.11 626.442 4154.17 637.5 4096.19 637.5C4059.73 637.5 4013.7 632.419 3958.11 622.257L3930.32 617.774L3933.9 536.181C4005.63 545.745 4057.34 550.527 4089.02 550.527C4120.7 550.527 4143.11 546.642 4156.26 538.871C4170.01 531.101 4176.89 518.249 4176.89 500.316C4176.89 482.384 4170.31 470.13 4157.16 463.555C4144.61 456.382 4113.82 448.91 4064.81 441.139C4016.39 432.771 3980.82 419.919 3958.11 402.584C3935.4 385.25 3924.04 353.569 3924.04 307.542C3924.04 261.515 3939.58 227.145 3970.66 204.43C4002.34 181.716 4042.69 170.359 4091.71 170.359C4129.96 170.359 4176.89 175.141 4232.48 184.705L4260.27 190.084L4258.48 271.677Z" fill="#3E4E8E"/>
</svg>
