<svg width="800" height="799" viewBox="0 0 800 799" fill="none" xmlns="http://www.w3.org/2000/svg">
<path d="M152.174 380.435V554.348H500L673.913 380.435V32.6087H500V206.522H326.087V380.435H152.174Z" fill="#B2B8D2"/>
<rect x="100" y="347.826" width="278.261" height="65.2174" rx="32.6087" fill="#3E4E8E"/>
<rect x="273.913" y="173.913" width="278.261" height="65.2174" rx="32.6087" fill="#3E4E8E"/>
<path d="M473.913 32.6087C473.913 14.5994 488.512 0 506.522 0H667.391C685.401 0 700 14.5994 700 32.6087V32.6087C700 50.618 685.401 65.2174 667.391 65.2174H506.522C488.512 65.2174 473.913 50.618 473.913 32.6087V32.6087Z" fill="#3E4E8E"/>
<path d="M52.1822 754.782H28.8046V796.11H0V654.175H52.1822C85.8571 654.175 102.695 670.595 102.695 703.435C102.695 719.994 98.3808 732.726 89.7533 741.632C81.265 750.399 68.7413 754.782 52.1822 754.782ZM28.8046 730.152H51.9734C66.3062 730.152 73.4725 721.246 73.4725 703.435C73.4725 694.668 71.7331 688.406 68.2543 684.649C64.7755 680.753 59.3485 678.805 51.9734 678.805H28.8046V730.152Z" fill="#3E4E8E"/>
<path d="M120.409 796.11V691.746H148.17V702.808C159.858 695.851 170.991 691.328 181.566 689.241V717.419C170.295 719.785 160.624 722.22 152.553 724.725L148.378 726.186V796.11H120.409Z" fill="#3E4E8E"/>
<path d="M203.706 703.643C211.081 694.042 223.396 689.241 240.651 689.241C257.906 689.241 270.221 694.042 277.596 703.643C284.971 713.106 288.659 726.464 288.659 743.719C288.659 780.316 272.656 798.615 240.651 798.615C208.646 798.615 192.644 780.316 192.644 743.719C192.644 726.464 196.331 713.106 203.706 703.643ZM225.205 767.306C228.127 772.315 233.276 774.82 240.651 774.82C248.026 774.82 253.105 772.315 255.888 767.306C258.811 762.296 260.272 754.434 260.272 743.719C260.272 733.004 258.811 725.212 255.888 720.342C253.105 715.471 248.026 713.036 240.651 713.036C233.276 713.036 228.127 715.471 225.205 720.342C222.422 725.212 221.031 733.004 221.031 743.719C221.031 754.434 222.422 762.296 225.205 767.306Z" fill="#3E4E8E"/>
<path d="M384.095 717.837C366.84 715.61 354.734 714.497 347.776 714.497C340.958 714.497 336.505 715.123 334.418 716.376C332.469 717.628 331.495 719.646 331.495 722.429C331.495 725.073 332.817 726.951 335.461 728.065C338.244 729.039 345.202 730.569 356.334 732.657C367.605 734.605 375.607 737.875 380.338 742.467C385.069 747.059 387.435 754.504 387.435 764.801C387.435 787.343 373.45 798.615 345.48 798.615C336.296 798.615 325.164 797.362 312.084 794.858L305.404 793.605L306.239 770.228C323.494 772.454 335.461 773.567 342.141 773.567C348.959 773.567 353.551 772.941 355.917 771.689C358.421 770.297 359.674 768.28 359.674 765.636C359.674 762.992 358.352 761.044 355.708 759.791C353.203 758.539 346.524 757.008 335.67 755.199C324.955 753.39 316.954 750.329 311.666 746.015C306.378 741.701 303.735 734.048 303.735 723.055C303.735 711.923 307.492 703.574 315.006 698.008C322.52 692.302 332.191 689.45 344.019 689.45C352.229 689.45 363.431 690.772 377.624 693.416L384.513 694.668L384.095 717.837Z" fill="#3E4E8E"/>
<path d="M465.432 715.541H439.759V758.33C439.759 762.505 439.828 765.497 439.967 767.306C440.246 768.975 441.011 770.436 442.263 771.689C443.655 772.941 445.742 773.567 448.525 773.567L464.389 773.15L465.641 795.484C456.318 797.571 449.221 798.615 444.351 798.615C431.827 798.615 423.269 795.832 418.677 790.266C414.085 784.56 411.789 774.124 411.789 758.956V715.541H399.474V691.746H411.789V662.732H439.759V691.746H465.432V715.541Z" fill="#3E4E8E"/>
<path d="M563.589 724.307V767.723C563.867 771.063 564.424 773.428 565.259 774.82C566.093 776.072 567.833 776.977 570.477 777.533L569.642 798.615C562.545 798.615 556.84 798.128 552.526 797.154C548.351 796.18 544.107 794.232 539.794 791.309C529.775 796.18 519.547 798.615 509.11 798.615C487.542 798.615 476.758 787.204 476.758 764.383C476.758 753.251 479.749 745.389 485.733 740.797C491.716 736.066 500.9 733.283 513.285 732.448L535.619 730.778V724.307C535.619 719.994 534.645 717.071 532.697 715.541C530.749 713.871 527.618 713.036 523.304 713.036L484.063 714.706L483.228 695.294C498.117 691.259 512.241 689.241 525.6 689.241C539.098 689.241 548.769 692.024 554.613 697.59C560.597 703.156 563.589 712.062 563.589 724.307ZM516.625 751.86C508.832 752.555 504.936 756.73 504.936 764.383C504.936 772.037 508.345 775.863 515.164 775.863C520.451 775.863 526.226 775.028 532.488 773.359L535.619 772.524V750.19L516.625 751.86Z" fill="#3E4E8E"/>
<path d="M590.252 796.11V691.746H618.222V796.11H590.252ZM590.252 678.387V650H618.222V678.387H590.252Z" fill="#3E4E8E"/>
<path d="M644.065 796.11V691.746H671.826V702.808C683.515 695.851 694.647 691.328 705.223 689.241V717.419C693.951 719.785 684.28 722.22 676.209 724.725L672.035 726.186V796.11H644.065Z" fill="#3E4E8E"/>
<path d="M796.66 717.837C779.405 715.61 767.299 714.497 760.342 714.497C753.523 714.497 749.07 715.123 746.983 716.376C745.035 717.628 744.061 719.646 744.061 722.429C744.061 725.073 745.383 726.951 748.027 728.065C750.81 729.039 757.767 730.569 768.899 732.657C780.171 734.605 788.172 737.875 792.903 742.467C797.634 747.059 800 754.504 800 764.801C800 787.343 786.015 798.615 758.046 798.615C748.861 798.615 737.729 797.362 724.649 794.858L717.97 793.605L718.805 770.228C736.059 772.454 748.027 773.567 754.706 773.567C761.524 773.567 766.116 772.941 768.482 771.689C770.987 770.297 772.239 768.28 772.239 765.636C772.239 762.992 770.917 761.044 768.273 759.791C765.769 758.539 759.089 757.008 748.235 755.199C737.521 753.39 729.519 750.329 724.232 746.015C718.944 741.701 716.3 734.048 716.3 723.055C716.3 711.923 720.057 703.574 727.571 698.008C735.085 692.302 744.757 689.45 756.584 689.45C764.794 689.45 775.996 690.772 790.19 693.416L797.078 694.668L796.66 717.837Z" fill="#3E4E8E"/>
</svg>
